<?xml version="1.0" encoding="UTF-8"?>
<!-- Generator: Adobe Illustrator 16.0.0, SVG Export Plug-In . SVG Version: 6.00 Build 0)  -->
<!DOCTYPE svg PUBLIC "-//W3C//DTD SVG 1.0//EN" "http://www.w3.org/TR/2001/REC-SVG-20010904/DTD/svg10.dtd">
<svg version="1.0" id="Layer_1" xmlns="http://www.w3.org/2000/svg" xmlns:xlink="http://www.w3.org/1999/xlink" x="0px" y="0px" width="200px" height="75px" viewBox="0 0 200 75" enable-background="new 0 0 200 75" xml:space="preserve">
<g>
	<g>
		<polygon fill="#FFFFFF" points="98.8,18.9 93.2,18.9 93.2,60.1 108.9,60.1 108.9,55.3 98.8,55.3   "/>
		<path fill="#FFFFFF" d="M124.6,18.7l-8,40.2l0,1.1h5.3l1.5-8.8h7.3l1.5,8.8h5.6l-8.1-41.3H124.6z M124.2,46.5l2.9-15.9l2.9,15.9    H124.2z"/>
		<polygon fill="#FFFFFF" points="186.4,38.7 196.3,20.1 196.3,18.9 190.7,18.9 182.8,34 182.8,18.9 177.3,18.9 177.3,60.1     182.8,60.1 182.8,43.5 191.6,60.1 197.8,60.1   "/>
		<path fill="#FFFFFF" d="M80.4,39.7L79.1,39c-0.6-0.4,0-0.8,0-0.8l1.2-0.6c1.3-0.9,1.9-2,1.9-3.3V22.5c0-1.1-0.4-2-1.1-2.6    c-0.7-0.7-1.7-1-2.8-1H63v41.2h15.3c1.1,0,2.1-0.3,2.8-1c0.8-0.7,1.1-1.6,1.1-2.6V43C82.3,41.5,81.6,40.4,80.4,39.7z M68.6,23.6    h6.5c0.4,0,0.8,0.1,1.1,0.4c0.3,0.2,0.4,0.5,0.4,0.9v7.9v1.4v2h-3.3h-4.7V23.6z M76.7,42.9V44v11.3h-8.1V41h4.8h1.9    c0.4,0,0.7,0.1,1,0.4c0.3,0.2,0.4,0.6,0.4,0.9V42.9z"/>
		<path fill="#FFFFFF" d="M166.3,32.3v-9.9c0-0.5-0.1-1-0.3-1.4c0,0,0,0,0-0.1c0,0,0,0,0,0c-0.2-0.4-0.5-0.8-0.9-1.2    c-0.7-0.7-1.7-1-2.8-1h0h-4.7H151c-1.1,0-2.1,0.3-2.8,1c-0.8,0.7-1.1,1.6-1.1,2.6v33.9c0,1.1,0.4,2,1.1,2.6c0.7,0.7,1.7,1,2.8,1    h11.3c1.1,0,2.1-0.3,2.8-1c0.8-0.7,1.2-1.6,1.2-2.6v-6.2h-5.6v5h-6.6c-0.4,0-0.8-0.1-1.1-0.4c-0.3-0.2-0.4-0.5-0.4-0.9V24.9v-1.2    h1.5h3.3h1.8c0.4,0,0.8,0.1,1.1,0.4c0.3,0.2,0.4,0.5,0.4,0.9V26c0,0,0,0,0,0l0,6.3H166.3z"/>
	</g>
	<g>
		<path fill="#FFFFFF" d="M25,24.3c-12.6,0-22.8,10.2-22.8,22.8C2.2,59.8,12.4,70,25,70c12.6,0,22.8-10.2,22.8-22.8    C47.8,34.6,37.6,24.3,25,24.3z M25,63.6c-9.1,0-16.4-7.4-16.4-16.4c0-9.1,7.4-16.4,16.4-16.4c9.1,0,16.4,7.4,16.4,16.4    C41.4,56.2,34.1,63.6,25,63.6z"/>
		<g>
			<path fill="#FFFFFF" d="M2.2,24.3c5.3,0,9.6-4.3,9.6-9.6C11.8,9.3,7.5,5,2.2,5V24.3z"/>
		</g>
	</g>
</g>
</svg>